<svg width="1799.6000000000001" height="1181.4" xmlns="http://www.w3.org/2000/svg" xmlns:xlink="http://www.w3.org/1999/xlink"><line x1="97.125" y1="7.0" x2="25.875" y2="31.0" style="stroke:black; stroke-width:1px;" />
<line x1="97.125" y1="7.0" x2="78.875" y2="31.0" style="stroke:black; stroke-width:1px;" />
<line x1="78.875" y1="38.0" x2="78.875" y2="62.0" style="stroke:black; stroke-width:1px;" />
<line x1="78.875" y1="69.0" x2="78.875" y2="93.0" style="stroke:black; stroke-width:1px;" />
<line x1="78.875" y1="100.0" x2="53.125" y2="124.0" style="stroke:black; stroke-width:1px;" />
<line x1="78.875" y1="100.0" x2="104.625" y2="124.0" style="stroke:black; stroke-width:1px;" />
<line x1="104.625" y1="131.0" x2="104.625" y2="155.0" style="stroke:black; stroke-width:1px;" />
<line x1="104.625" y1="162.0" x2="55.75" y2="186.0" style="stroke:black; stroke-width:1px;" />
<line x1="55.75" y1="193.0" x2="22.0" y2="217.0" style="stroke:black; stroke-width:1px;" />
<line x1="22.0" y1="224.0" x2="22.0" y2="248.0" style="stroke:black; stroke-width:1px;" />
<line x1="22.0" y1="255.0" x2="22.0" y2="279.0" style="stroke:black; stroke-width:1px;" />
<line x1="22.0" y1="286.0" x2="22.0" y2="310.0" style="stroke:black; stroke-width:1px;" />
<line x1="55.75" y1="193.0" x2="54.0" y2="217.0" style="stroke:black; stroke-width:1px;" />
<line x1="54.0" y1="224.0" x2="54.0" y2="248.0" style="stroke:black; stroke-width:1px;" />
<line x1="55.75" y1="193.0" x2="89.5" y2="217.0" style="stroke:black; stroke-width:1px;" />
<line x1="89.5" y1="224.0" x2="89.5" y2="248.0" style="stroke:black; stroke-width:1px;" />
<line x1="89.5" y1="255.0" x2="89.5" y2="279.0" style="stroke:black; stroke-width:1px;" />
<line x1="104.625" y1="162.0" x2="119.0" y2="186.0" style="stroke:black; stroke-width:1px;" />
<line x1="119.0" y1="193.0" x2="119.0" y2="217.0" style="stroke:black; stroke-width:1px;" />
<line x1="104.625" y1="162.0" x2="153.5" y2="186.0" style="stroke:black; stroke-width:1px;" />
<line x1="153.5" y1="193.0" x2="153.5" y2="217.0" style="stroke:black; stroke-width:1px;" />
<line x1="153.5" y1="224.0" x2="153.5" y2="248.0" style="stroke:black; stroke-width:1px;" />
<line x1="97.125" y1="7.0" x2="125.875" y2="31.0" style="stroke:black; stroke-width:1px;" />
<line x1="97.125" y1="7.0" x2="168.375" y2="31.0" style="stroke:black; stroke-width:1px;" />
<rect x="70.625" y="0.0" width="53.0" height="14.0" style="fill:orange; stroke:rgb(0,0,0);" rx="1"/>
<text x="72" y="9" style="font-family:sans-serif;font-size:10px;">
program
</text>
<rect x="63.875" y="62.0" width="30.0" height="14.0" style="fill:orange; stroke:rgb(0,0,0);" rx="1"/>
<text x="65" y="71" style="font-family:sans-serif;font-size:10px;">
stmt
</text>
<rect x="71.0" y="217.0" width="37.0" height="14.0" style="fill:orange; stroke:rgb(0,0,0);" rx="1"/>
<text x="73" y="226" style="font-family:sans-serif;font-size:10px;">
factor
</text>
<rect x="46.875" y="93.0" width="64.0" height="14.0" style="fill:orange; stroke:rgb(0,0,0);" rx="1"/>
<text x="48" y="102" style="font-family:sans-serif;font-size:10px;">
write_stmt
</text>
<rect x="146.375" y="31.0" width="44.0" height="14.0" style="fill:orange; stroke:rgb(0,0,0);" rx="1"/>
<text x="148" y="40" style="font-family:sans-serif;font-size:10px;">
&lt;EOF&gt;
</text>
<rect x="0.0" y="279.0" width="44.0" height="14.0" style="fill:orange; stroke:rgb(0,0,0);" rx="1"/>
<text x="2" y="288" style="font-family:sans-serif;font-size:10px;">
integer
</text>
<rect x="67.5" y="248.0" width="44.0" height="14.0" style="fill:orange; stroke:rgb(0,0,0);" rx="1"/>
<text x="69" y="257" style="font-family:sans-serif;font-size:10px;">
integer
</text>
<rect x="148.0" y="248.0" width="11.0" height="14.0" style="fill:orange; stroke:rgb(0,0,0);" rx="1"/>
<text x="150" y="257" style="font-family:sans-serif;font-size:10px;">
3
</text>
<rect x="52.375" y="31.0" width="53.0" height="14.0" style="fill:orange; stroke:rgb(0,0,0);" rx="1"/>
<text x="54" y="40" style="font-family:sans-serif;font-size:10px;">
stmt_list
</text>
<rect x="78.625" y="124.0" width="52.0" height="14.0" style="fill:orange; stroke:rgb(0,0,0);" rx="1"/>
<text x="80" y="133" style="font-family:sans-serif;font-size:10px;">
expr_list
</text>
<rect x="47.5" y="248.0" width="13.0" height="14.0" style="fill:orange; stroke:rgb(0,0,0);" rx="1"/>
<text x="49" y="257" style="font-family:sans-serif;font-size:10px;">
+
</text>
<rect x="6.375" y="31.0" width="39.0" height="14.0" style="fill:orange; stroke:rgb(0,0,0);" rx="1"/>
<text x="8" y="40" style="font-family:sans-serif;font-size:10px;">
BEGIN
</text>
<rect x="3.5" y="248.0" width="37.0" height="14.0" style="fill:orange; stroke:rgb(0,0,0);" rx="1"/>
<text x="5" y="257" style="font-family:sans-serif;font-size:10px;">
factor
</text>
<rect x="84.0" y="279.0" width="11.0" height="14.0" style="fill:orange; stroke:rgb(0,0,0);" rx="1"/>
<text x="86" y="288" style="font-family:sans-serif;font-size:10px;">
2
</text>
<rect x="115.0" y="217.0" width="8.0" height="14.0" style="fill:orange; stroke:rgb(0,0,0);" rx="1"/>
<text x="117" y="226" style="font-family:sans-serif;font-size:10px;">
-
</text>
<rect x="45.0" y="217.0" width="18.0" height="14.0" style="fill:orange; stroke:rgb(0,0,0);" rx="1"/>
<text x="47" y="226" style="font-family:sans-serif;font-size:10px;">
op
</text>
<rect x="90.125" y="155.0" width="29.0" height="14.0" style="fill:orange; stroke:rgb(0,0,0);" rx="1"/>
<text x="92" y="164" style="font-family:sans-serif;font-size:10px;">
expr
</text>
<rect x="41.25" y="186.0" width="29.0" height="14.0" style="fill:orange; stroke:rgb(0,0,0);" rx="1"/>
<text x="43" y="195" style="font-family:sans-serif;font-size:10px;">
expr
</text>
<rect x="7.5" y="217.0" width="29.0" height="14.0" style="fill:orange; stroke:rgb(0,0,0);" rx="1"/>
<text x="9" y="226" style="font-family:sans-serif;font-size:10px;">
expr
</text>
<rect x="34.625" y="124.0" width="37.0" height="14.0" style="fill:orange; stroke:rgb(0,0,0);" rx="1"/>
<text x="36" y="133" style="font-family:sans-serif;font-size:10px;">
WRITE
</text>
<rect x="110.0" y="186.0" width="18.0" height="14.0" style="fill:orange; stroke:rgb(0,0,0);" rx="1"/>
<text x="112" y="195" style="font-family:sans-serif;font-size:10px;">
op
</text>
<rect x="131.5" y="217.0" width="44.0" height="14.0" style="fill:orange; stroke:rgb(0,0,0);" rx="1"/>
<text x="133" y="226" style="font-family:sans-serif;font-size:10px;">
integer
</text>
<rect x="16.5" y="310.0" width="11.0" height="14.0" style="fill:orange; stroke:rgb(0,0,0);" rx="1"/>
<text x="18" y="319" style="font-family:sans-serif;font-size:10px;">
1
</text>
<rect x="135.0" y="186.0" width="37.0" height="14.0" style="fill:orange; stroke:rgb(0,0,0);" rx="1"/>
<text x="137" y="195" style="font-family:sans-serif;font-size:10px;">
factor
</text>
<rect x="112.375" y="31.0" width="27.0" height="14.0" style="fill:orange; stroke:rgb(0,0,0);" rx="1"/>
<text x="114" y="40" style="font-family:sans-serif;font-size:10px;">
END
</text>
</svg>